<?xml version="1.0" standalone="no"?>
<!DOCTYPE svg PUBLIC "-//W3C//DTD SVG 20010904//EN"
 "http://www.w3.org/TR/2001/REC-SVG-20010904/DTD/svg10.dtd">
<svg version="1.0" xmlns="http://www.w3.org/2000/svg"
 width="512.000000pt" height="512.000000pt" viewBox="0 0 512.000000 512.000000"
 preserveAspectRatio="xMidYMid meet">

<g transform="translate(0.000000,512.000000) scale(0.100000,-0.100000)"
fill="#000000" stroke="none">
<path d="M2335 4400 c-448 -97 -778 -427 -880 -880 -13 -57 -18 -144 -22 -356
l-5 -282 -57 -6 c-107 -12 -209 -84 -259 -183 -42 -80 -43 -123 -40 -948 l3
-790 31 -66 c37 -78 85 -129 157 -167 l52 -27 1245 0 1245 0 47 24 c69 34 125
93 161 169 l32 67 3 790 c3 825 2 868 -40 948 -50 99 -152 171 -260 183 l-58
7 0 226 c0 241 -9 350 -40 471 -99 388 -414 703 -807 807 -137 36 -375 42
-508 13z m479 -149 c385 -103 676 -439 725 -836 6 -49 11 -190 11 -312 l0
-223 -110 0 -110 0 0 258 c0 280 -10 354 -64 472 -96 213 -288 375 -516 437
-89 24 -290 24 -380 0 -229 -62 -425 -228 -519 -442 -51 -115 -61 -191 -61
-467 l0 -258 -110 0 -110 0 0 223 c0 122 5 263 11 312 52 424 366 762 789 851
98 20 343 12 444 -15z m-120 -336 c187 -40 355 -173 436 -347 54 -117 60 -159
60 -435 l0 -253 -630 0 -630 0 0 253 c0 280 6 319 64 442 100 211 322 353 556
354 41 0 106 -6 144 -14z m1077 -1185 c20 -6 52 -27 73 -47 68 -69 67 -47 64
-925 l-3 -785 -30 -49 c-21 -34 -44 -56 -75 -72 l-44 -22 -1196 0 -1196 0 -44
23 c-49 24 -84 69 -100 126 -6 23 -10 320 -10 802 0 851 -1 834 65 902 20 20
50 41 68 46 45 13 2381 14 2428 1z"/>
</g>
</svg>
