<?xml version="1.0" standalone="no"?>
<!DOCTYPE svg PUBLIC "-//W3C//DTD SVG 20010904//EN"
 "http://www.w3.org/TR/2001/REC-SVG-20010904/DTD/svg10.dtd">
<svg version="1.0" xmlns="http://www.w3.org/2000/svg"
 width="512.000000pt" height="512.000000pt" viewBox="0 0 512.000000 512.000000"
 preserveAspectRatio="xMidYMid meet">

<g transform="translate(0.000000,512.000000) scale(0.100000,-0.100000)"
fill="#000000" stroke="none">
<path d="M831 4464 c-167 -45 -292 -172 -336 -341 -22 -86 -22 -2240 0 -2326
44 -171 170 -297 340 -342 49 -12 142 -15 540 -16 l480 0 303 -360 c175 -208
315 -365 333 -375 40 -20 108 -20 148 0 17 9 158 168 332 376 l303 360 476 0
c515 0 535 2 642 56 67 34 158 125 192 192 58 115 56 69 56 1272 0 948 -2
1114 -15 1163 -44 171 -170 297 -340 342 -87 22 -3370 22 -3454 -1z m3405
-320 c19 -9 44 -31 57 -48 l22 -31 3 -1093 c3 -1211 6 -1136 -62 -1185 -31
-22 -32 -22 -571 -27 -481 -4 -544 -7 -566 -22 -14 -9 -144 -156 -289 -327
-145 -171 -266 -311 -270 -311 -4 0 -125 140 -270 311 -145 171 -275 318 -289
327 -22 15 -85 18 -566 22 -539 5 -540 5 -571 27 -68 49 -65 -26 -62 1185 l3
1093 22 31 c49 69 -87 64 1731 64 1496 0 1647 -1 1678 -16z"/>
</g>
</svg>
